# Blender v2.79 (sub 0) OBJ File: 'deck.blend'
# www.blender.org
mtllib deck.mtl
o Cube
v 0.057564 -0.005076 -0.033302
v 0.057564 0.021648 -0.033302
v 0.059113 -0.005076 -0.032406
v 0.060500 -0.005076 -0.030468
v 0.060500 0.021648 -0.030468
v 0.059113 0.021648 -0.032406
v 0.053719 -0.005076 -0.035000
v 0.055271 -0.005076 -0.034628
v 0.055271 0.021648 -0.034628
v 0.053719 0.021648 -0.035000
v 0.057564 -0.005076 0.033302
v 0.057564 0.021648 0.033302
v 0.059113 -0.005076 0.032406
v 0.060500 -0.005076 0.030468
v 0.060500 0.021648 0.030468
v 0.059113 0.021648 0.032406
v 0.053719 -0.005076 0.035000
v 0.055271 -0.005076 0.034628
v 0.055271 0.021648 0.034628
v 0.053719 0.021648 0.035000
v -0.057564 -0.005076 -0.033302
v -0.057564 0.021648 -0.033302
v -0.059113 -0.005076 -0.032406
v -0.060500 -0.005076 -0.030468
v -0.060500 0.021648 -0.030468
v -0.059113 0.021648 -0.032406
v -0.053719 -0.005076 -0.035000
v -0.055271 -0.005076 -0.034628
v -0.055271 0.021648 -0.034628
v -0.053719 0.021648 -0.035000
v -0.057564 -0.005076 0.033302
v -0.057564 0.021648 0.033302
v -0.059113 -0.005076 0.032406
v -0.060500 -0.005076 0.030468
v -0.060500 0.021648 0.030468
v -0.059113 0.021648 0.032406
v -0.053719 -0.005076 0.035000
v -0.055271 -0.005076 0.034628
v -0.055271 0.021648 0.034628
v -0.053719 0.021648 0.035000
v 0.060500 0.021648 0.000000
v 0.000000 0.021648 -0.035000
v -0.060500 0.021648 0.000000
v 0.000000 0.021648 0.035000
vt 0.100106 0.012702
vt 0.506883 0.013337
vt 0.890160 0.012757
vt 0.926352 0.018659
vt 0.954972 0.030477
vt 0.973922 0.044166
vt 0.985357 0.063984
vt 0.985124 0.506689
vt 0.984963 0.932629
vt 0.976482 0.950394
vt 0.953539 0.970403
vt 0.920812 0.982080
vt 0.887520 0.987445
vt 0.493901 0.987388
vt 0.100607 0.987419
vt 0.059695 0.978136
vt 0.036216 0.964767
vt 0.020764 0.949821
vt 0.012860 0.928981
vt 0.013138 0.506506
vt 0.013831 0.062282
vt 0.024685 0.045720
vt 0.045411 0.030057
vt 0.070361 0.019178
vt 0.029932 0.045405
vt 0.414925 0.002582
vt 0.427364 0.010750
vt 0.223337 0.032162
vt 0.030840 0.053574
vt 0.011799 0.072698
vt 0.005372 0.067601
vt 0.010269 0.061426
vt 0.016696 0.066524
vt 0.008220 0.085245
vt 0.000331 0.082995
vt 0.003910 0.070448
vt 0.017522 0.052279
vt 0.023951 0.057377
vt 0.025677 0.044221
vt 0.018787 0.048025
vt 0.057956 0.473242
vt 0.065943 0.479604
vt 0.059322 0.487918
vt 0.051335 0.481556
vt 0.043501 0.462732
vt 0.000071 0.086185
vt 0.029935 0.273519
vt 0.051649 0.461792
vt 0.050758 0.477208
vt 0.044451 0.465758
vt 0.075105 0.486872
vt 0.069997 0.493311
vt 0.060835 0.486043
vt 0.081502 0.503908
vt 0.071117 0.500970
vt 0.085491 0.489810
vt 0.487432 0.057965
vt 0.486919 0.038877
vt 0.492402 0.020526
vt 0.498990 0.011192
vt 0.505249 0.007319
vt 0.949248 0.068070
vt 0.955480 0.072519
vt 0.961500 0.082224
vt 0.966660 0.090549
vt 0.969812 0.106970
vt 0.908054 0.480592
vt 0.901714 0.491558
vt 0.895923 0.496030
vt 0.887346 0.502652
vt 0.882077 0.503908
vt 0.538004 0.436825
vt 0.529790 0.430907
vt 0.523769 0.421136
vt 0.522698 0.409594
vt 0.522086 0.395000
vt 0.443887 0.050456
vt 0.432842 0.037957
vt 0.462969 0.020526
vt 0.456802 0.038877
vt 0.449634 0.061912
vt 0.457379 0.057965
vt 0.435231 0.024072
vt 0.428765 0.006515
vt 0.437907 0.013721
vt 0.418806 0.000071
vt 0.426673 0.002261
vt 0.487972 0.413092
vt 0.497044 0.409594
vt 0.498249 0.421136
vt 0.477487 0.425047
vt 0.490032 0.398356
vt 0.496355 0.395000
vt 0.494958 0.424703
vt 0.487528 0.441359
vt 0.466213 0.442816
vt 0.477784 0.451935
vt 0.461281 0.442631
vt 0.484638 0.445441
vt 0.277229 0.466221
vt 0.469969 0.450767
vt 0.086492 0.497947
vt 0.468872 0.229867
vn 0.0000 1.0000 -0.0000
vn 0.0000 0.0000 -1.0000
vn 0.5008 0.0000 -0.8656
vn 0.8131 0.0000 -0.5822
vn 0.2330 0.0000 -0.9725
vn 0.5008 0.0000 0.8656
vn 1.0000 0.0000 0.0000
vn 0.8131 0.0000 0.5822
vn 0.2330 0.0000 0.9725
vn 0.0000 -1.0000 0.0000
vn -0.5008 0.0000 -0.8656
vn -0.8131 0.0000 -0.5822
vn -0.2330 0.0000 -0.9725
vn -0.5008 0.0000 0.8656
vn -0.8131 0.0000 0.5822
vn -0.2330 0.0000 0.9725
vn 0.0000 0.0000 1.0000
vn -1.0000 0.0000 0.0000
usemtl Material
s off
f 15/1/1 41/2/1 5/3/1 6/4/1 2/5/1 9/6/1 10/7/1 42/8/1 30/9/1 29/10/1 22/11/1 26/12/1 25/13/1 43/14/1 35/15/1 36/16/1 32/17/1 39/18/1 40/19/1 44/20/1 20/21/1 19/22/1 12/23/1 16/24/1
usemtl Material.001
f 7/25/2 27/26/2 30/27/2 42/28/2 10/29/2
f 6/30/3 3/31/3 1/32/3 2/33/3
f 5/34/4 4/35/4 3/36/4 6/30/4
f 2/33/3 1/32/3 8/37/3 9/38/3
f 7/39/5 10/29/5 9/38/5 8/40/5
f 16/41/6 12/42/6 11/43/6 13/44/6
f 14/45/7 4/46/7 5/34/7 41/47/7 15/48/7
f 15/48/8 16/41/8 13/49/8 14/50/8
f 12/42/6 19/51/6 18/52/6 11/53/6
f 17/54/9 18/55/9 19/51/9 20/56/9
f 24/57/10 23/58/10 21/59/10 28/60/10 27/61/10 7/62/10 8/63/10 1/64/10 3/65/10 4/66/10 14/67/10 13/68/10 11/69/10 18/70/10 17/71/10 37/72/10 38/73/10 31/74/10 33/75/10 34/76/10
f 26/77/11 22/78/11 21/79/11 23/80/11
f 25/81/12 26/77/12 23/80/12 24/82/12
f 22/78/11 29/83/11 28/84/11 21/85/11
f 27/86/13 28/87/13 29/83/13 30/27/13
f 36/88/14 33/89/14 31/90/14 32/91/14
f 35/92/15 34/93/15 33/89/15 36/88/15
f 32/91/14 31/94/14 38/95/14 39/96/14
f 37/97/16 40/98/16 39/96/16 38/99/16
f 20/56/17 44/100/17 40/98/17 37/101/17 17/102/17
f 34/93/18 35/92/18 43/103/18 25/81/18 24/82/18
